# xmcd CD database file
#
# Track frame offsets:
#	150
#	19527
#	32672
#	43270
#	62647
#
# Disc length: 1009 seconds
#
# Revision: 2
# Processed by: cddbd v1.5.2PL0 Copyright (c) Steve Scherf et al.
# Submitted via: CDex 1.70beta3
#
DISCID=3803ef05
DTITLE=家入レオ - 君がくれた夏
DYEAR=2015
DGENRE=J-Rock
TTITLE0=君がくれた夏
TTITLE1=Shooter
TTITLE2=I Feel The Earth Move(Live)
TTITLE3=君がくれた夏(Instrumental)
TTITLE4=Shooter(Instrumental)
EXTD=YEAR: 2015
EXTT0=
EXTT1=
EXTT2=
EXTT3=
EXTT4=
PLAYORDER=
